<mxfile host="app.diagrams.net" modified="2021-07-10T07:27:37.407Z" agent="5.0 (Windows NT 10.0; Win64; x64) AppleWebKit/537.36 (KHTML, like Gecko) Chrome/91.0.4472.124 Safari/537.36" etag="3ugNVfQp0CpE0-XxCpiq" version="14.8.5" type="github">
  <diagram id="o7bYqzuO92zBYhjiVRQV" name="Page-1">
    <mxGraphModel dx="1182" dy="764" grid="1" gridSize="10" guides="1" tooltips="1" connect="1" arrows="1" fold="1" page="1" pageScale="1" pageWidth="827" pageHeight="1169" math="0" shadow="0">
      <root>
        <mxCell id="0" />
        <mxCell id="1" parent="0" />
        <mxCell id="GQqfbArkqZ1gBAA1aUDS-1" value="Первый блок в ожидании создания мыслей приложения" style="rounded=1;whiteSpace=wrap;html=1;" vertex="1" parent="1">
          <mxGeometry x="360" y="50" width="120" height="60" as="geometry" />
        </mxCell>
      </root>
    </mxGraphModel>
  </diagram>
</mxfile>
